<svg xmlns="http://www.w3.org/2000/svg" viewBox="0 0 120 120" fill="none">
  <!-- Background Circle -->
  <circle cx="60" cy="60" r="58" fill="url(#grad1)" stroke="#FF6200" stroke-width="3"/>
  
  <!-- Lion Face Base -->
  <circle cx="60" cy="65" r="35" fill="#FFD699"/>
  
  <!-- Mane -->
  <ellipse cx="60" cy="55" rx="48" ry="45" fill="#FF8C42"/>
  <ellipse cx="60" cy="60" rx="40" ry="38" fill="#FF6200"/>
  <ellipse cx="60" cy="65" rx="35" ry="33" fill="#FFD699"/>
  
  <!-- Eyes -->
  <ellipse cx="45" cy="58" rx="8" ry="9" fill="white"/>
  <ellipse cx="75" cy="58" rx="8" ry="9" fill="white"/>
  <circle cx="46" cy="59" r="5" fill="#33307E"/>
  <circle cx="76" cy="59" r="5" fill="#33307E"/>
  <circle cx="47" cy="57" r="2" fill="white"/>
  <circle cx="77" cy="57" r="2" fill="white"/>
  
  <!-- Nose -->
  <ellipse cx="60" cy="72" rx="8" ry="6" fill="#FF6200"/>
  <path d="M52 78 L60 85 L68 78" stroke="#CC4E00" stroke-width="2.5" stroke-linecap="round" fill="none"/>
  
  <!-- Mouth -->
  <path d="M60 85 L60 90" stroke="#CC4E00" stroke-width="2" stroke-linecap="round"/>
  <path d="M50 88 Q55 93 60 90 Q65 93 70 88" stroke="#CC4E00" stroke-width="2" stroke-linecap="round" fill="none"/>
  
  <!-- Whiskers -->
  <line x1="30" y1="70" x2="42" y2="72" stroke="#CC9966" stroke-width="1.5" stroke-linecap="round"/>
  <line x1="30" y1="76" x2="42" y2="76" stroke="#CC9966" stroke-width="1.5" stroke-linecap="round"/>
  <line x1="30" y1="82" x2="42" y2="80" stroke="#CC9966" stroke-width="1.5" stroke-linecap="round"/>
  <line x1="90" y1="70" x2="78" y2="72" stroke="#CC9966" stroke-width="1.5" stroke-linecap="round"/>
  <line x1="90" y1="76" x2="78" y2="76" stroke="#CC9966" stroke-width="1.5" stroke-linecap="round"/>
  <line x1="90" y1="82" x2="78" y2="80" stroke="#CC9966" stroke-width="1.5" stroke-linecap="round"/>
  
  <!-- Ears -->
  <ellipse cx="28" cy="35" rx="12" ry="14" fill="#FF8C42"/>
  <ellipse cx="28" cy="35" rx="7" ry="9" fill="#FFB366"/>
  <ellipse cx="92" cy="35" rx="12" ry="14" fill="#FF8C42"/>
  <ellipse cx="92" cy="35" rx="7" ry="9" fill="#FFB366"/>
  
  <!-- Crown/Sparkle for AI -->
  <path d="M60 15 L63 22 L70 22 L65 27 L67 35 L60 30 L53 35 L55 27 L50 22 L57 22 Z" fill="#FFD700"/>
  
  <defs>
    <linearGradient id="grad1" x1="0%" y1="0%" x2="100%" y2="100%">
      <stop offset="0%" style="stop-color:#FFF5E6;stop-opacity:1" />
      <stop offset="100%" style="stop-color:#FFE4C4;stop-opacity:1" />
    </linearGradient>
  </defs>
</svg>
